#!OML:ASF E:\pregnant2\Project 1\Capture day 1\Session 1\pregnant2.ASF
:FULLY-SPECIFIED
:DEGREES
2937
root 6.35362 16.7228 36.409 -146.614 6.19179 539.378
lowerback -20.2705 -6.23361 2.06495
upperback -16.7345 -4.45125 4.22618
thorax -6.94485 -0.409544 2.5993
lowerneck -1.14778 -17.8948 -23.5943
upperneck 26.4485 -24.1657 10.2204
head 13.3983 -11.8048 3.98733
rclavicle 4.19436e-014 1.51076e-014
rhumerus -42.2089 17.8905 -89.0584
rradius 27.1007
rwrist 13.8175
rhand -11.7589 -16.8927
rfingers 7.12502
rthumb 14.2893 -46.3811
lclavicle 4.19436e-014 1.51076e-014
lhumerus -53.9991 10.4321 74.206
lradius 46.7521
lwrist 2.283
lhand -9.34929 28.0884
lfingers 7.12502
lthumb 16.6102 57.3976
rfemur -39.4248 6.04348 22.4862
rtibia 32.0072
rfoot -21.8761 -6.30252
rtoes -4.69774
lfemur -64.1609 1.63328 -21.2789
ltibia 36.1043
lfoot -9.01161 12.5518
ltoes -15.3496
2938
root 6.34517 16.7414 36.3023 -146.661 6.23934 539.441
lowerback -20.345 -6.14101 2.16138
upperback -16.7269 -4.33775 4.16266
thorax -6.91787 -0.362904 2.4894
lowerneck -1.76421 -17.6353 -23.1479
upperneck 27.2078 -23.6019 9.83343
head 13.6019 -11.4981 3.87503
rclavicle 2.00773e-014 1.59028e-014
rhumerus -42.0568 17.7536 -89.0822
rradius 27.2889
rwrist 13.7564
rhand -11.9575 -16.9367
rfingers 7.12502
rthumb 14.0979 -46.4385
lclavicle 2.00773e-014 1.59028e-014
lhumerus -53.999 10.49 74.0509
lradius 46.6834
lwrist 2.29253
lhand -9.22896 28.3026
lfingers 7.12502
lthumb 16.726 57.602
rfemur -38.5329 6.15868 22.4769
rtibia 31.1354
rfoot -21.6208 -6.5062
rtoes -5.08389
lfemur -63.817 1.15765 -20.4435
ltibia 33.6706
lfoot -8.64845 12.8641
ltoes -15.2071
2939
root 6.33589 16.7643 36.1954 -146.71 6.28945 539.498
lowerback -20.4236 -6.04441 2.25907
upperback -16.7161 -4.22098 4.08826
thorax -6.88546 -0.315976 2.36739
lowerneck -2.38123 -17.3431 -22.6367
upperneck 27.9352 -22.9941 9.44412
head 13.7812 -11.1678 3.76364
rclavicle -1.97791e-014 0
rhumerus -41.9123 17.6043 -89.1124
rradius 27.4894
rwrist 13.6703
rhand -12.1528 -16.9679
rfingers 7.12502
rthumb 13.9098 -46.4827
lclavicle -1.97791e-014 0
lhumerus -54.0032 10.5367 73.891
lradius 46.6364
lwrist 2.33719
lhand -9.11167 28.5236
lfingers 7.12502
lthumb 16.8389 57.8135
rfemur -37.5817 6.26025 22.466
rtibia 30.1427
rfoot -21.2865 -6.70837
rtoes -5.49884
lfemur -63.3637 0.354932 -19.2183
ltibia 31.2137
lfoot -8.10217 13.5598
ltoes -14.9762
2940
root 6.3257 16.7896 36.0882 -146.763 6.34326 539.546
lowerback -20.5028 -5.9441 2.35289
upperback -16.7023 -4.10085 4.00091
thorax -6.84937 -0.268495 2.2341
lowerneck -2.99432 -17.0234 -22.0631
upperneck 28.6298 -22.3518 9.05022
head 13.9375 -10.8182 3.64982
rclavicle -2.8128e-014 -7.95139e-016
rhumerus -41.7788 17.4375 -89.1467
rradius 27.7058
rwrist 13.561
rhand -12.3359 -17.0038
rfingers 7.12502
rthumb 13.7333 -46.5306
lclavicle -2.8128e-014 -7.95139e-016
lhumerus -54.0104 10.5639 73.7333
lradius 46.6123
lwrist 2.41526
lhand -8.99778 28.7592
lfingers 7.12502
lthumb 16.9486 58.0397
rfemur -36.587 6.34599 22.4511
rtibia 29.0634
rfoot -20.894 -6.91336
rtoes -5.92982
lfemur -62.8226 -0.841265 -17.5214
ltibia 28.7781
lfoot -7.35671 14.7603
ltoes -14.5632
2941
root 6.31473 16.8148 35.9809 -146.822 6.41165 539.589
lowerback -20.5756 -5.8349 2.44083
upperback -16.6871 -3.97001 3.90015
thorax -6.81461 -0.216627 2.09152
lowerneck -3.60014 -16.6851 -21.4378
upperneck 29.2899 -21.6928 8.6619
head 14.0762 -10.4569 3.53394
rclavicle -4.44284e-014 -5.1684e-014
rhumerus -41.654 17.241 -89.1833
rradius 27.9297
rwrist 13.4291
rhand -12.4984 -17.0833
rfingers 7.12502
rthumb 13.5767 -46.6206
lclavicle -4.44284e-014 -5.1684e-014
lhumerus -54.0092 10.559 73.5876
lradius 46.5969
lwrist 2.52423
lhand -8.92309 29.0104
lfingers 7.12502
lthumb 17.0205 58.2847
rfemur -35.5721 6.42044 22.4355
rtibia 27.9495
rfoot -20.4727 -7.11166
rtoes -6.36207
lfemur -62.2416 -2.44 -15.3238
ltibia 26.4264
lfoot -6.41485 16.5545
ltoes -13.9884
